<?xml version="1.0" encoding="utf-8"?>
<!-- Generator: Adobe Illustrator 24.0.1, SVG Export Plug-In . SVG Version: 6.00 Build 0)  -->
<svg version="1.1" id="Logo" xmlns="http://www.w3.org/2000/svg" xmlns:xlink="http://www.w3.org/1999/xlink" x="0px" y="0px"
	 viewBox="0 0 439 109.8" style="enable-background:new 0 0 439 109.8;" xml:space="preserve">
<style type="text/css">
	.st0{fill:#4A4A49;}
	.st1{fill:#3A4C00;}
	.st2{fill:#00A8CB;}
	.st3{fill:#FFFFFF;}
	.st4{fill:#B0BC22;}
</style>
<title>SENRS_logo_white_text</title>
<path class="st0" d="M148.1,21.4c-1.1-0.5-2.2-0.7-3.4-0.7c-1.2,0-2.6,0.5-2.6,2.3c0,2.9,7.4,1.7,7.4,7.3c0,3.7-2.9,5.1-6.3,5.1
	c-1.5,0-2.9-0.2-4.3-0.7l0.3-3c1.2,0.6,2.5,1,3.8,1c1.3,0,3-0.7,3-2.2c0-3.2-7.4-1.9-7.4-7.4c0-3.8,2.9-5.1,5.9-5.1
	c1.4,0,2.7,0.2,4,0.6L148.1,21.4z"/>
<path class="st0" d="M160.2,25.3c-0.7-0.3-1.4-0.5-2.2-0.5c-2,0-3.3,1.6-3.3,3.9s1.1,4,3.4,4c0.9,0,1.7-0.2,2.5-0.6l0.1,2.7
	c-1,0.3-2.1,0.4-3.2,0.4c-4.1,0-6.1-2.8-6.1-6.6c0-3.6,2.1-6.4,6-6.4c1.1,0,2.1,0.1,3.1,0.4L160.2,25.3z"/>
<path class="st0" d="M162.9,17h3.2v7.3l0,0c0.9-1.3,2.3-2,3.9-2c2.9,0,4.2,2.1,4.2,4.9v7.8H171v-6.6c0-1.5,0-3.6-2.1-3.6
	c-2.3,0-2.8,2.5-2.8,4.1v6.1h-3.2L162.9,17z"/>
<path class="st0" d="M183.3,22.4c3.4-0.2,6.3,2.5,6.5,5.9c0,0.2,0,0.4,0,0.7c0,3.6-2.9,6.5-6.5,6.5s-6.5-2.9-6.5-6.5
	c-0.2-3.4,2.4-6.4,5.8-6.6C182.8,22.4,183,22.4,183.3,22.4z M183.3,32.9c2.5,0,3.1-2.2,3.1-4.3c0-1.9-1-3.7-3.1-3.7
	s-3.1,1.8-3.1,3.7C180.1,30.6,180.8,32.9,183.3,32.9L183.3,32.9z"/>
<path class="st0" d="M198,22.4c3.4-0.2,6.3,2.5,6.5,5.9c0,0.2,0,0.4,0,0.7c0,3.6-2.9,6.5-6.5,6.5s-6.5-2.9-6.5-6.5
	c-0.2-3.4,2.4-6.4,5.8-6.6C197.5,22.4,197.7,22.4,198,22.4z M198,32.9c2.5,0,3.1-2.2,3.1-4.3c0-1.9-1-3.7-3.1-3.7s-3.1,1.8-3.1,3.7
	C194.9,30.6,195.5,32.9,198,32.9L198,32.9z"/>
<path class="st0" d="M207.1,17h3.2v18.1h-3.2V17z"/>
<path class="st0" d="M226.1,22.4c3.4-0.2,6.3,2.5,6.5,5.9c0,0.2,0,0.4,0,0.7c0,3.6-2.9,6.5-6.5,6.5s-6.5-2.9-6.5-6.5
	c-0.2-3.4,2.4-6.4,5.8-6.6C225.6,22.4,225.8,22.4,226.1,22.4z M226.1,32.9c2.5,0,3.1-2.2,3.1-4.3c0-1.9-1-3.7-3.1-3.7
	s-3.1,1.8-3.1,3.7C223,30.6,223.6,32.9,226.1,32.9L226.1,32.9z"/>
<path class="st0" d="M236.3,25h-2.4v-2.4h2.4v-1.7c0-2.5,1.4-4.2,4-4.2c0.8,0,1.6,0.1,2.4,0.3l-0.3,2.7c-0.4-0.3-0.9-0.4-1.4-0.4
	c-1.1,0-1.4,0.9-1.4,1.9v1.5h2.8V25h-2.8v10h-3.2L236.3,25z"/>
<path class="st0" d="M251.4,18.3h9.9v2.7h-6.5v4.1h6v2.7h-6v4.7h6.6v2.7h-10L251.4,18.3z"/>
<path class="st0" d="M264.5,22.7h3.1v1.7l0,0c0.9-1.3,2.5-2.1,4.1-2c2.9,0,4.2,2.1,4.2,4.9v7.8h-3.2v-6.7c0-1.5,0-3.6-2.1-3.6
	c-2.3,0-2.8,2.5-2.8,4.1v6.1h-3.2L264.5,22.7z"/>
<path class="st0" d="M277.9,22.7h3.5l3.1,9l0,0l3-9h3.3l-4.6,12.4h-3.6L277.9,22.7z"/>
<path class="st0" d="M292.7,17.3h3.2v3.1h-3.2V17.3z M292.7,22.7h3.2v12.4h-3.2V22.7z"/>
<path class="st0" d="M299.4,22.7h2.9v2.8l0,0c0.3-1.7,1.7-2.9,3.4-3.1c0.3,0,0.7,0,1,0.1v3.3c-0.5-0.2-1-0.3-1.5-0.3
	c-2.6,0-2.6,3.3-2.6,5.1v4.6h-3.2V22.7z"/>
<path class="st0" d="M314,22.4c3.4-0.2,6.3,2.5,6.5,5.9c0,0.2,0,0.4,0,0.7c0,3.6-2.9,6.5-6.5,6.5s-6.5-2.9-6.5-6.5
	c-0.2-3.4,2.4-6.4,5.8-6.6C313.5,22.4,313.8,22.4,314,22.4z M314,32.9c2.5,0,3.1-2.2,3.1-4.3c0-1.9-1-3.7-3.1-3.7s-3.1,1.8-3.1,3.7
	C310.9,30.6,311.5,32.9,314,32.9L314,32.9z"/>
<path class="st0" d="M323,22.7h3.1v1.7l0,0c0.9-1.3,2.5-2.1,4.1-2c2.9,0,4.2,2.1,4.2,4.9v7.8h-3.2v-6.6c0-1.5,0-3.6-2.1-3.6
	c-2.3,0-2.8,2.5-2.8,4.1v6.1H323V22.7z"/>
<path class="st0" d="M337.7,22.7h3v1.7l0,0c0.8-1.3,2.2-2,3.7-2c1.6-0.1,3,0.7,3.7,2.2c0.8-1.4,2.3-2.3,3.9-2.2
	c3.1,0,3.9,2.1,3.9,4.9v7.8h-3.2v-7.4c0-1.2,0-2.8-1.9-2.8c-2.1,0-2.4,2.6-2.4,4.2v6h-3.2v-7.4c0-1.2,0-2.8-1.9-2.8
	c-2.1,0-2.4,2.6-2.4,4.2v6h-3.2V22.7z"/>
<path class="st0" d="M369.1,34.4c-1.3,0.7-2.8,1-4.3,1c-4.1,0-6.5-2.4-6.5-6.4c0-3.6,1.9-6.6,5.8-6.6c4.6,0,5.9,3.2,5.9,7.5h-8.6
	c0.1,1.8,1.5,3.2,3.3,3.1c0.1,0,0.1,0,0.2,0c1.5,0,2.9-0.5,4.1-1.3L369.1,34.4z M366.9,27.7c-0.1-1.6-0.8-2.9-2.6-2.9
	s-2.7,1.3-2.9,2.9H366.9z"/>
<path class="st0" d="M372.5,22.7h3.1v1.7l0,0c0.9-1.3,2.5-2.1,4.1-2c2.9,0,4.2,2.1,4.2,4.9v7.8h-3.2v-6.7c0-1.5,0-3.6-2.1-3.6
	c-2.3,0-2.8,2.5-2.8,4.1v6.1h-3.3V22.7z"/>
<path class="st0" d="M388.3,25h-2.4v-2.4h2.4v-2.5l3.2-1v3.5h2.9v2.4h-2.9v5.7c0,1.1,0.3,2,1.5,2c0.5,0,1-0.1,1.5-0.3l0.1,2.6
	c-0.8,0.2-1.6,0.3-2.4,0.3c-2.5,0-3.9-1.6-3.9-4L388.3,25z"/>
<path class="st0" d="M397.1,23.3c1.4-0.6,2.8-0.9,4.3-0.9c3.8,0,5.4,1.6,5.4,5.2v1.6c0,1.3,0,2.2,0,3.1s0.1,1.8,0.1,2.8h-2.8
	c-0.1-0.6-0.1-1.2-0.1-1.8l0,0c-0.8,1.3-2.3,2.2-3.8,2.1c-2.2,0-4.3-1.3-4.3-3.7c-0.1-1.5,0.7-2.9,2.1-3.5c1.3-0.5,2.7-0.8,4.2-0.7
	h1.8c0-2-0.9-2.7-2.8-2.7c-1.4,0-2.7,0.5-3.8,1.3L397.1,23.3z M400.9,33c0.9,0,1.7-0.4,2.3-1.1c0.5-0.8,0.7-1.6,0.7-2.6h-1.4
	c-1.5,0-3.6,0.2-3.6,2.1C398.9,32.5,399.8,33,400.9,33z"/>
<path class="st0" d="M410,17h3.2v18.1H410V17z"/>
<path class="st0" d="M434.1,29.6c0.7-1.1,1.1-2.4,1.1-3.7h2.9c-0.1,2.1-0.8,4.1-2.1,5.8l3,3.4h-4.1l-1.1-1.5
	c-1.2,1.2-2.9,1.8-4.6,1.8c-3.3,0-6-1.7-6-4.9c0-2,0.9-3.5,3.5-4.6c-1.3-1.2-2.3-2.1-2.3-4c0-2.6,2.8-3.8,5.1-3.8s4.8,1.1,4.8,3.8
	c0,2.3-1.4,3.4-3.3,4.4L434.1,29.6z M428.4,27.7c-1.1,0.4-1.9,1.5-2,2.7c0.1,1.4,1.3,2.6,2.7,2.5c0,0,0.1,0,0.1,0
	c1.1,0.1,2.1-0.3,2.9-1L428.4,27.7z M431.4,22.1c0-0.9-0.7-1.7-1.7-1.7c-0.1,0-0.1,0-0.2,0c-1-0.1-1.8,0.6-1.9,1.6
	c0,0.1,0,0.1,0,0.2c0,0.9,0.9,1.7,1.6,2.4C430,24.1,431.4,23.1,431.4,22.1L431.4,22.1z"/>
<path class="st0" d="M138.9,48.4h4.1l6.4,12.6l0,0V48.4h3.3v16.8h-4.1l-6.4-12.6l0,0v12.6h-3.3V48.4z"/>
<path class="st0" d="M156.7,53.4c1.4-0.6,2.8-0.9,4.3-0.9c3.8,0,5.4,1.6,5.4,5.2v1.6c0,1.3,0,2.2,0,3.1s0.1,1.8,0.1,2.8h-2.8
	c-0.1-0.6-0.1-1.2-0.1-1.8l0,0c-0.8,1.3-2.3,2.1-3.9,2.1c-2.2,0-4.3-1.3-4.3-3.7c-0.1-1.5,0.7-2.9,2.1-3.5c1.3-0.5,2.7-0.8,4.2-0.7
	h1.8c0-2-0.9-2.7-2.8-2.7c-1.4,0-2.7,0.5-3.8,1.3L156.7,53.4z M160.5,63.1c0.9,0,1.7-0.4,2.3-1.1c0.5-0.8,0.7-1.6,0.7-2.6H162
	c-1.4,0-3.6,0.2-3.6,2.1C158.5,62.7,159.4,63.1,160.5,63.1L160.5,63.1z"/>
<path class="st0" d="M170.6,55.1h-2.4v-2.4h2.4v-2.5l3.2-1v3.5h2.9v2.4h-2.9V61c0,1.1,0.3,2,1.5,2c0.5,0,1-0.1,1.5-0.3l0.1,2.6
	c-0.8,0.2-1.6,0.3-2.4,0.3c-2.5,0-3.9-1.6-3.9-4L170.6,55.1z"/>
<path class="st0" d="M190.3,65.2h-3.1v-1.7l0,0c-1,1.3-2.5,2-4.1,2c-2.9,0-4.2-2.1-4.2-4.9v-7.8h3.2v6.6c0,1.5,0,3.6,2.1,3.6
	c2.3,0,2.8-2.5,2.8-4.1v-6.1h3.2L190.3,65.2z"/>
<path class="st0" d="M193.7,52.8h2.9v2.8l0,0c0.3-1.7,1.7-3,3.4-3.1c0.3,0,0.7,0,1,0.1v3.3c-0.5-0.2-0.9-0.3-1.4-0.3
	c-2.6,0-2.6,3.3-2.6,5.1v4.6h-3.2V52.8z"/>
<path class="st0" d="M203.6,53.4c1.4-0.6,2.8-0.9,4.3-0.9c3.8,0,5.4,1.6,5.4,5.2v1.6c0,1.3,0,2.2,0,3.1s0.1,1.8,0.1,2.8h-2.8
	c-0.1-0.6-0.1-1.2-0.1-1.8l0,0c-0.8,1.3-2.3,2.2-3.8,2.1c-2.2,0-4.3-1.3-4.3-3.7c-0.1-1.5,0.7-2.9,2.1-3.5c1.3-0.5,2.7-0.8,4.2-0.7
	h1.8c0-2-0.9-2.7-2.8-2.7c-1.4,0-2.7,0.5-3.8,1.3L203.6,53.4z M207.3,63.1c0.9,0,1.7-0.4,2.3-1.1c0.5-0.8,0.7-1.6,0.7-2.6h-1.4
	c-1.5,0-3.6,0.2-3.6,2.1C205.3,62.7,206.2,63.1,207.3,63.1L207.3,63.1z"/>
<path class="st0" d="M216.5,47.1h3.3v18.1h-3.2L216.5,47.1z"/>
<path class="st0" d="M229.8,48.4h3.6c3.6,0,7.9-0.1,7.9,4.6c0,2-1.5,3.7-3.5,3.9l0,0c0.9,0.1,1.4,1,1.8,1.7l2.7,6.6h-3.8l-2-5.3
	c-0.5-1.3-0.9-1.7-2.3-1.7h-1.1v7h-3.4L229.8,48.4z M233.1,55.6h1.1c1.7,0,3.6-0.2,3.6-2.3s-1.9-2.2-3.6-2.2h-1.1V55.6z"/>
<path class="st0" d="M254.4,64.5c-1.3,0.7-2.8,1-4.3,1c-4.1,0-6.5-2.4-6.5-6.4c0-3.6,1.9-6.6,5.8-6.6c4.6,0,5.9,3.2,5.9,7.5h-8.6
	c0.1,1.8,1.5,3.2,3.3,3.1c0.1,0,0.1,0,0.2,0c1.5,0,2.9-0.5,4.1-1.3L254.4,64.5z M252.3,57.8c-0.1-1.6-0.8-2.9-2.6-2.9
	s-2.7,1.3-2.9,2.9H252.3z"/>
<path class="st0" d="M265.3,55.4c-0.9-0.4-1.9-0.5-2.9-0.5c-0.9,0-1.9,0.3-1.9,1.4c0,2,5.6,0.7,5.6,5.2c0,2.9-2.6,4-5.2,4
	c-1.2,0-2.5-0.2-3.7-0.5l0.2-2.7c1,0.5,2.1,0.8,3.2,0.8c0.8,0,2.1-0.3,2.1-1.5c0-2.4-5.6-0.8-5.6-5.3c0-2.7,2.3-3.8,4.9-3.8
	c1.2,0,2.4,0.2,3.5,0.5L265.3,55.4z"/>
<path class="st0" d="M274.3,52.5c3.4-0.2,6.3,2.5,6.5,5.9c0,0.2,0,0.4,0,0.7c0,3.6-2.9,6.5-6.5,6.5s-6.5-2.9-6.5-6.5
	c-0.2-3.4,2.4-6.4,5.8-6.6C273.8,52.5,274,52.5,274.3,52.5z M274.3,63c2.5,0,3.1-2.2,3.1-4.3c0-1.9-1-3.7-3.1-3.7s-3.1,1.8-3.1,3.7
	C271.1,60.7,271.8,63,274.3,63z"/>
<path class="st0" d="M294.7,65.2h-3.1v-1.7l0,0c-1,1.3-2.5,2-4.1,2c-2.9,0-4.2-2.1-4.2-4.9v-7.8h3.2v6.6c0,1.5,0,3.6,2.1,3.6
	c2.3,0,2.8-2.5,2.8-4.1v-6.1h3.2V65.2z"/>
<path class="st0" d="M298.1,52.8h2.9v2.8l0,0c0.3-1.7,1.7-3,3.4-3.1c0.3,0,0.7,0,1,0.1v3.3c-0.5-0.2-0.9-0.3-1.4-0.3
	c-2.6,0-2.6,3.3-2.6,5.1v4.6H298L298.1,52.8z"/>
<path class="st0" d="M315,55.4c-0.7-0.3-1.4-0.5-2.2-0.5c-2,0-3.3,1.6-3.3,3.9s1.1,4,3.4,4c0.9,0,1.7-0.2,2.5-0.6l0.1,2.7
	c-1,0.3-2.1,0.4-3.2,0.4c-4.1,0-6.1-2.8-6.1-6.6c0-3.6,2.1-6.4,6-6.4c1.1,0,2.1,0.1,3.1,0.4L315,55.4z"/>
<path class="st0" d="M327.6,64.5c-1.3,0.7-2.8,1-4.3,1c-4.1,0-6.5-2.4-6.5-6.4c0-3.6,1.9-6.6,5.8-6.6c4.6,0,5.9,3.2,5.9,7.5h-8.6
	c0.1,1.8,1.5,3.2,3.3,3.1c0.1,0,0.1,0,0.2,0c1.5,0,2.9-0.5,4.1-1.3L327.6,64.5z M325.4,57.8c-0.1-1.6-0.8-2.9-2.6-2.9
	s-2.7,1.3-2.9,2.9H325.4z"/>
<path class="st0" d="M347,51.4c-1.1-0.5-2.2-0.7-3.4-0.7c-1.2,0-2.6,0.5-2.6,2.3c0,2.9,7.4,1.7,7.4,7.3c0,3.7-2.9,5.1-6.3,5.1
	c-1.5,0-2.9-0.2-4.3-0.7l0.3-3c1.2,0.6,2.5,1,3.8,1c1.3,0,3-0.7,3-2.2c0-3.2-7.4-1.9-7.4-7.4c0-3.8,2.9-5.1,5.9-5.1
	c1.4,0,2.7,0.2,4,0.6L347,51.4z"/>
<path class="st0" d="M359.1,55.4c-0.7-0.3-1.4-0.5-2.2-0.5c-2,0-3.3,1.6-3.3,3.9s1.1,4,3.4,4c0.9,0,1.7-0.2,2.5-0.6l0.1,2.7
	c-1,0.3-2.1,0.4-3.2,0.4c-4.1,0-6.1-2.8-6.1-6.6c0-3.6,2.1-6.4,6-6.4c1.1,0,2.1,0.1,3.1,0.4L359.1,55.4z"/>
<path class="st0" d="M361.9,47.4h3.2v3.1h-3.2V47.4z M361.9,52.8h3.2v12.4h-3.2V52.8z"/>
<path class="st0" d="M378.4,64.5c-1.3,0.7-2.8,1-4.3,1c-4.1,0-6.5-2.4-6.5-6.4c0-3.6,1.9-6.6,5.8-6.6c4.6,0,5.9,3.2,5.9,7.5h-8.6
	c0.1,1.8,1.5,3.2,3.3,3.1c0.1,0,0.1,0,0.2,0c1.5-0.1,2.9-0.5,4.1-1.3L378.4,64.5z M376.3,57.8c-0.1-1.6-0.8-2.9-2.6-2.9
	s-2.7,1.3-2.9,2.9H376.3z"/>
<path class="st0" d="M381.9,52.8h3.1v1.6l0,0c0.9-1.3,2.5-2.1,4.1-2c2.9,0,4.2,2.1,4.2,4.9v7.8H390v-6.6c0-1.5,0-3.6-2.1-3.6
	c-2.3,0-2.8,2.5-2.8,4.1v6.1h-3.2L381.9,52.8z"/>
<path class="st0" d="M404.6,55.4c-0.7-0.3-1.4-0.5-2.2-0.5c-2,0-3.3,1.6-3.3,3.9s1.1,4,3.4,4c0.9,0,1.7-0.2,2.5-0.6l0.1,2.7
	c-1,0.3-2.1,0.4-3.2,0.4c-4.1,0-6.1-2.8-6.1-6.6c0-3.6,2.1-6.4,6-6.4c1.1,0,2.1,0.1,3.1,0.4L404.6,55.4z"/>
<path class="st0" d="M417.2,64.5c-1.3,0.7-2.8,1-4.3,1c-4.1,0-6.5-2.4-6.5-6.4c0-3.6,1.9-6.6,5.8-6.6c4.6,0,5.9,3.2,5.9,7.5h-8.6
	c0.1,1.8,1.5,3.2,3.3,3.1c0.1,0,0.1,0,0.2,0c1.5,0,2.9-0.5,4.1-1.3L417.2,64.5z M415.1,57.8c-0.1-1.6-0.8-2.9-2.6-2.9
	s-2.7,1.3-2.9,2.9H415.1z"/>
<path class="st0" d="M428,55.4c-0.9-0.4-1.9-0.5-2.9-0.5c-0.9,0-1.9,0.3-1.9,1.4c0,2,5.6,0.7,5.6,5.2c0,2.9-2.6,4-5.2,4
	c-1.2,0-2.5-0.2-3.7-0.5l0.2-2.7c1,0.5,2.1,0.8,3.2,0.8c0.8,0,2.1-0.3,2.1-1.5c0-2.4-5.6-0.8-5.6-5.3c0-2.7,2.3-3.8,4.9-3.8
	c1.2,0,2.4,0.2,3.5,0.5L428,55.4z"/>
<path class="st0" d="M138.6,82.7h7v2h-4.5v3.1h4.3v2h-4.3v5.5h-2.5L138.6,82.7z"/>
<path class="st0" d="M147.5,86h2.1v2.1l0,0c0.2-1.3,1.3-2.2,2.5-2.3c0.2,0,0.5,0,0.7,0.1v2.4c-0.3-0.1-0.7-0.2-1.1-0.2
	c-2,0-2,2.5-2,3.8v3.4h-2.4L147.5,86z"/>
<path class="st0" d="M158.4,85.8c2.6-0.1,4.8,1.9,4.9,4.4c0,0.2,0,0.3,0,0.5c0,2.7-2.2,4.9-4.9,4.9c-2.7,0-4.9-2.2-4.9-4.9
	c-0.2-2.6,1.8-4.8,4.4-4.9C158.1,85.8,158.2,85.8,158.4,85.8z M158.4,93.6c1.9,0,2.4-1.7,2.4-3.2s-0.8-2.8-2.4-2.8
	c-1.6,0-2.3,1.4-2.3,2.8S156.5,93.6,158.4,93.6L158.4,93.6z"/>
<path class="st0" d="M170.7,87.9c-0.7-0.3-1.4-0.4-2.2-0.4c-0.6,0-1.4,0.2-1.4,1c0,1.5,4.2,0.5,4.2,3.9c0,2.2-1.9,3-3.9,3
	c-0.9,0-1.9-0.1-2.8-0.4l0.1-2c0.7,0.4,1.5,0.6,2.4,0.6c0.6,0,1.6-0.2,1.6-1.1c0-1.8-4.2-0.6-4.2-3.9c0-2,1.8-2.9,3.6-2.9
	c0.9,0,1.8,0.1,2.6,0.3L170.7,87.9z"/>
<path class="st0" d="M174,87.7h-1.8V86h1.8v-1.9l2.4-0.8V86h2.1v1.8h-2.1v4.3c0,0.8,0.2,1.5,1.1,1.5c0.4,0,0.8-0.1,1.1-0.3l0.1,1.9
	c-0.6,0.2-1.2,0.2-1.8,0.2c-1.5,0.1-2.8-1-2.9-2.5c0-0.2,0-0.3,0-0.5L174,87.7z"/>
<path class="st0" d="M194.6,95.1c-0.9,0.2-1.9,0.4-2.9,0.4c-4.1,0-6.9-2-6.9-6.3s2.6-6.8,6.9-6.8c1,0,1.9,0.2,2.9,0.5l-0.2,2.1
	c-0.8-0.5-1.7-0.7-2.7-0.7c-2.6,0-4.2,2-4.2,4.6c-0.2,2.3,1.5,4.3,3.8,4.5c0.2,0,0.3,0,0.5,0c0.9,0,1.9-0.2,2.8-0.5L194.6,95.1z"/>
<path class="st0" d="M196.7,86.4c1-0.4,2.1-0.7,3.2-0.7c2.8,0,4,1.2,4,3.9v1.2c0,0.9,0,1.6,0,2.3s0,1.4,0.1,2.1h-2.1
	c-0.1-0.5-0.1-0.9-0.1-1.4l0,0c-0.6,1-1.7,1.6-2.9,1.6c-1.6,0-3.3-1-3.3-2.8c-0.1-1.1,0.6-2.2,1.6-2.7c1-0.4,2.1-0.6,3.1-0.5h1.3
	c0-1.5-0.7-2-2.1-2c-1,0-2,0.4-2.9,1L196.7,86.4z M199.5,93.7c0.7,0,1.3-0.3,1.7-0.8c0.4-0.6,0.6-1.2,0.5-1.9h-1
	c-1.1,0-2.7,0.2-2.7,1.6C198,93.4,198.6,93.7,199.5,93.7L199.5,93.7z"/>
<path class="st0" d="M206.3,86h2.3v1.3l0,0c0.6-0.9,1.6-1.5,2.8-1.5c1.2-0.1,2.3,0.6,2.8,1.6c0.6-1.1,1.7-1.7,2.9-1.6
	c2.3,0,3,1.6,3,3.6v5.9h-2.4v-5.6c0-0.9,0-2.1-1.4-2.1c-1.6,0-1.8,1.9-1.8,3.1v4.5h-2.4v-5.6c0-0.9,0-2.1-1.4-2.1
	c-1.6,0-1.8,1.9-1.8,3.1v4.5h-2.4L206.3,86z"/>
<path class="st0" d="M222.3,86h2.3v1.3l0,0c0.6-1,1.7-1.6,2.9-1.5c2.9,0,3.9,2.3,3.9,4.8s-1,4.9-4,4.9c-1.1,0.1-2.1-0.4-2.7-1.3l0,0
	v4.9h-2.4L222.3,86z M224.8,90.6c0,1.3,0.5,3,2.1,3s2-1.7,2-3s-0.4-3-2-3S224.8,89.3,224.8,90.6L224.8,90.6z"/>
<path class="st0" d="M241.9,95.3h-2.3V94l0,0c-0.7,0.9-1.9,1.5-3,1.5c-2.2,0-3.2-1.6-3.2-3.6V86h2.4v5c0,1.1,0,2.7,1.6,2.7
	c1.8,0,2.1-1.9,2.1-3.1V86h2.4L241.9,95.3z"/>
<path class="st0" d="M249.9,87.9c-0.7-0.3-1.4-0.4-2.2-0.4c-0.6,0-1.4,0.2-1.4,1c0,1.5,4.2,0.5,4.2,3.9c0,2.2-1.9,3-3.9,3
	c-0.9,0-1.9-0.1-2.8-0.4l0.1-2c0.7,0.4,1.5,0.6,2.4,0.6c0.6,0,1.6-0.2,1.6-1.1c0-1.8-4.2-0.6-4.2-3.9c0-2,1.8-2.9,3.6-2.9
	c0.9,0,1.8,0.1,2.6,0.3L249.9,87.9z"/>
<path class="st0" d="M259,81.1h1.3v18.1H259V81.1z"/>
<path class="st0" d="M269.6,82.7h6.7v1.6h-4.9v3.7h4.7v1.6h-4.7v5.8h-1.8L269.6,82.7z"/>
<path class="st0" d="M278.8,81.7h1.7v13.6h-1.7V81.7z"/>
<path class="st0" d="M290.6,94.9c-0.9,0.4-1.9,0.6-2.9,0.6c-3.3,0-4.8-2-4.8-5c0-2.7,1.7-4.7,4.3-4.7c3.1,0,4.1,2.2,4.1,5.2h-6.6
	c0,1.7,1.3,3,2.9,3.1c0,0,0,0,0.1,0c1,0,2-0.4,2.8-0.9L290.6,94.9z M289.5,89.8c0.1-1.3-0.8-2.4-2.1-2.6c-0.1,0-0.1,0-0.2,0
	c-1.4,0-2.5,1.2-2.5,2.6H289.5z"/>
<path class="st0" d="M293.6,86.1h1.6v1.4l0,0c0.6-1,1.7-1.6,2.9-1.6c1.2,0,2.2,0.7,2.6,1.8c0.5-1.1,1.6-1.8,2.9-1.8
	c2.4,0,3.2,1.5,3.2,3.5v5.9h-1.7v-5.5c0-1.1-0.3-2.6-1.6-2.6c-1.7,0-2.4,1.7-2.4,3.4v4.6h-1.7v-5.5c0-1.1-0.3-2.6-1.6-2.6
	c-1.7,0-2.4,1.7-2.4,3.4v4.6h-1.7L293.6,86.1z"/>
<path class="st0" d="M311.7,84.2h-1.9v-1.9h1.9V84.2z M309.9,86.1h1.7v9.2h-1.7V86.1z"/>
<path class="st0" d="M314.7,86.1h1.6v1.5l0,0c0.6-1.1,1.8-1.7,3-1.7c2.4,0,3.5,1.5,3.5,4v5.5h-1.7v-4.8c0-2.1-0.5-3.2-2-3.3
	c-1.9,0-2.8,1.6-2.8,3.8v4.3h-1.6V86.1z"/>
<path class="st0" d="M333.9,94.9c0,2.8-1.5,4.4-4.8,4.4c-1.1,0-2.3-0.2-3.3-0.6l0.2-1.6c1,0.5,2.2,0.8,3.3,0.8
	c1.8,0,2.9-1.2,2.9-3.2v-0.9l0,0c-0.8,0.9-1.9,1.5-3.1,1.4c-2.6,0-3.9-2.1-3.9-4.5s1.3-4.9,4.1-4.9c1.2-0.1,2.4,0.5,3,1.6l0,0v-1.4
	h1.6L333.9,94.9z M332.2,90.8c0-1.9-0.9-3.6-2.7-3.6s-2.6,1.9-2.6,3.4c0,1.7,1,3.3,2.6,3.3C331.1,93.8,332.3,92.4,332.2,90.8
	C332.2,90.8,332.2,90.8,332.2,90.8z"/>
<path class="st0" d="M350.7,84.7c-0.8-0.5-1.7-0.7-2.6-0.7c-2.7,0-5,2.2-5,4.9c0,2.7,2.2,5,4.9,5c1,0,1.9-0.2,2.8-0.6l0.1,1.8
	c-0.9,0.3-1.9,0.5-2.9,0.4c-4,0-6.6-2.6-6.6-6.6s2.8-6.5,6.7-6.5c1,0,1.9,0.2,2.8,0.5L350.7,84.7z"/>
<path class="st0" d="M356.9,85.8c2.5-0.1,4.6,1.9,4.7,4.4c0,0.1,0,0.3,0,0.4c0.1,2.6-1.9,4.8-4.5,4.9c-2.6,0.1-4.8-1.9-4.9-4.5
	c0-0.1,0-0.3,0-0.4c-0.2-2.5,1.8-4.7,4.3-4.8C356.6,85.8,356.8,85.8,356.9,85.8z M356.9,94.1c2,0,2.9-1.8,2.9-3.4s-1.1-3.4-2.9-3.4
	s-2.9,1.7-2.9,3.4S354.9,94.1,356.9,94.1z"/>
<path class="st0" d="M364.1,81.7h1.7v13.6h-1.7V81.7z"/>
<path class="st0" d="M369.1,81.7h1.7v13.6h-1.7V81.7z"/>
<path class="st0" d="M381,94.9c-0.9,0.4-1.9,0.6-2.9,0.6c-3.3,0-4.8-2-4.8-5c0-2.7,1.7-4.7,4.3-4.7c3.1,0,4.1,2.2,4.1,5.2h-6.6
	c0,1.7,1.3,3,2.9,3.1c0,0,0,0,0.1,0c1,0,2-0.4,2.8-0.9L381,94.9z M379.9,89.8c0.1-1.3-0.8-2.4-2.1-2.6c-0.1,0-0.1,0-0.2,0
	c-1.4,0-2.5,1.2-2.5,2.6H379.9z"/>
<path class="st0" d="M392.1,94.9c0,2.8-1.5,4.4-4.8,4.4c-1.1,0-2.3-0.2-3.3-0.6l0.2-1.6c1,0.5,2.2,0.8,3.3,0.8
	c1.8,0,2.9-1.2,2.9-3.2v-0.9l0,0c-0.8,0.9-1.9,1.5-3.1,1.4c-2.6,0-3.9-2.1-3.9-4.5s1.3-4.9,4.1-4.9c1.2-0.1,2.4,0.5,3,1.6l0,0v-1.4
	h1.6L392.1,94.9z M390.4,90.8c0-1.9-0.9-3.6-2.7-3.6s-2.6,1.9-2.6,3.4c0,1.7,1,3.3,2.6,3.3C389.3,93.8,390.5,92.4,390.4,90.8
	C390.4,90.8,390.4,90.8,390.4,90.8L390.4,90.8z"/>
<path class="st0" d="M402,94.9c-0.9,0.4-1.9,0.6-2.9,0.6c-3.3,0-4.8-2-4.8-5c0-2.7,1.7-4.7,4.3-4.7c3.1,0,4.1,2.2,4.1,5.2h-6.6
	c0,1.7,1.3,3,2.9,3.1c0,0,0,0,0.1,0c1,0,2-0.4,2.8-0.9L402,94.9z M400.9,89.8c0.1-1.3-0.8-2.4-2.1-2.6c-0.1,0-0.1,0-0.2,0
	c-1.4,0-2.5,1.2-2.5,2.6H400.9z"/>
<path class="st1" d="M94.2,62.7c5.8-0.2,10.7,0,14.8,0.2L93.6,31.5L78.9,61.4c-1.3,0-2.6,0-4,0l6.7-13.6L68,20L47.2,62.3
	c-15.3,0.9-30.5,3.2-45.3,6.8c1.2,4.6,3.1,9.1,5.5,13.3C32.7,69.8,59.3,65,80.3,63.4C88.1,62.7,88.3,62.8,94.2,62.7z"/>
<path class="st2" d="M23.5,99.9c32.2-26.9,69.3-31.2,84.7-31.8c0.4-1.4,0.6-2.9,0.9-4.3c-19,0.5-60,4.6-93.5,29.5
	C18,95.7,20.7,98,23.5,99.9z"/>
<path class="st2" d="M35.1,106.1c28.3,11,60.1-3.1,71.1-31.4c0.7-1.8,1.3-3.7,1.8-5.5C93,71.9,59.2,80.6,35.1,106.1z"/>
<path class="st3" d="M107.9,69.3c0.1-0.4,0.2-0.7,0.3-1.1c-15.4,0.6-52.5,4.9-84.7,31.8c3.6,2.5,7.5,4.6,11.6,6.2
	C59.2,80.6,93,71.9,107.9,69.3z"/>
<path class="st3" d="M109,62.9c-9.6-0.5-19.2-0.3-28.7,0.5c-21,1.7-47.6,6.5-72.9,19c2.3,4,5,7.6,8.2,10.9
	c33.5-24.9,74.5-29,93.5-29.4c0-0.3,0.1-0.6,0.1-0.9L109,62.9z"/>
<path class="st4" d="M109.3,62.9c0.4-2.5,0.5-5,0.6-7.5C109.6,25.7,86.6,1.6,57.7,0.1C56.8,0,55.8,0,54.9,0c-1.8,0-3.6,0.1-5.4,0.3
	h-0.3l-0.4,0C22.4,3.3,1.6,25.3,0,52.6C0,53.4,0,54.1,0,54.9c0,4.8,0.6,9.6,1.9,14.2c14.9-3.6,30.1-5.9,45.3-6.8L67.9,20l13.6,27.8
	l-6.6,13.6c1.4,0,2.7,0,4,0l14.7-29.9L109,62.9"/>
</svg>
